<svg xmlns="http://www.w3.org/2000/svg" width="99" height="16" fill="none"><path fill="#fff" d="m11 13-2 2H6l-3-1-2-2-1-3V7l2-5 4-1 3 1 2 3H9c0-2-1-3-3-3L3 3 2 7v1l1 4 3 2 2-1h1V9H6V8h5v5Zm7 2-3-1-1-4V7l2-2 2-1c2 0 3 1 3 2l2 3v1h-8l1 3 2 1 2-1 1-1 1 1c-1 2-2 2-4 2Zm0-9-2 1-1 2h6l-1-3h-2Zm9-4v2h2v2h-2v7l1 1h1v1h-1l-2-1-1-2V6h-2V4h2V2h2Zm14 7-4-2-1-3 1-2 4-1h2l2 2 1 2h-2l-1-2-2-1-2 1-1 1 1 2 2 1 3 1 1 2 1 1-1 3-4 1h-3l-2-2v-2h1l1 2 3 1 2-1 1-2-1-1-2-1Zm9-7v2h2v2h-2v6l1 1 1 1v1h-1l-2-1V6h-2V4h2V2h1Zm11 13v-1l-3 1-3-1-1-2 1-2 4-1h2V8l-1-2h-3l-1 1h-2l1-1 2-1 2-1 3 1 1 3v7h-2Zm-3-1 2-1 1-1v-2h-2c-2 0-3 1-3 2l1 1 1 1Zm13-8h-1c-2 0-2 0-3 2v7h-2V4h2v2l3-2h1v2Zm4-4v2h2v2h-2v7l1 1h1v1h-1l-2-1-1-2V6h-2V4h2V2h2Zm9 13-4-1-1-4V7l2-2 2-1 4 2 1 3v1h-7v3l3 1 1-1 1-1 2 1c-1 2-3 2-4 2Zm-1-9-1 1-1 2h5l-1-3h-2Zm6 4 2-4c0-1 1-2 3-2l2 2V0h2v15h-1v-1l-3 1-3-1-2-4Zm2 0 1 3 2 1 2-2V7l-2-1-2 1-1 3Z"/></svg>