<svg xmlns="http://www.w3.org/2000/svg" width="114" height="16" fill="none"><path fill="#fff" d="M5 11v1-1L8 1h2l3 10v1-1l2-10h2l-3 14h-2L9 5V4v1L6 15H4L1 1h1l3 10Zm16-5 3-2c2 0 3 1 3 4v7h-1V8l-1-2h-3l-1 1v8h-2V0h2v6Zm16 9-1-1-3 1-2-1-1-2 1-2 4-1h1V6h-3l-1 1h-2l1-1 1-1 2-1 3 1 1 3v5l1 2h-2Zm-3-1 1-1 1-1v-2h-1c-2 0-3 1-3 2v1l2 1Zm9-12v2h2v2h-2v6l1 1 1 1v1h-1l-2-1V6h-2V4h2V2h1Zm19 11 2-9h2l-3 11h-2l-2-8-3 8h-1L52 4h1l2 8 3-8h1l3 9Zm10 2-4-1-1-4 1-3 1-2 3-1 3 2 1 3v1h-7l1 3 2 1 2-1 1-1 1 1c-1 2-2 2-4 2Zm0-9-2 1-1 2h5V6h-2Zm11 4 1-4 3-2 3 2V0h2v15h-2v-1l-3 1-3-1-1-4Zm1 0 1 3 2 1 3-2V7l-3-1-2 1-1 3Zm10 0 1-3 1-2 3-1 3 2 2 4-1 3a4 4 0 0 1-4 2l-4-1-1-4Zm2 0 1 3 2 1 2-1 1-3-1-3-2-1-2 1-1 3Zm12 1V9l1-1 1-2 1-2V3l-2-1-1 1-1 1h-2l1-2 3-1 3 1 1 2-1 4-2 1v2h-2Zm0 3v-1h2v2h-2v-1Z"/></svg>