<svg xmlns="http://www.w3.org/2000/svg" width="150" height="150" fill="none"><path fill="#E5E5E5" d="M0 0h150v150H0z"/><path fill="#fff" d="M-723-1689H877v3548H-723z"/><circle cx="75" cy="75" r="73" stroke="#0082F4" stroke-width="4"/><path fill="#0082F4" d="m108 62-5-9h-2l-7 3a1 1 0 1 0 1 2l6-3 4 7-5 4v18l5 4-4 7-6-3h-1c-4 4-8 7-13 8l-1 1-1 7h-8l-1-7-1-1c-5-1-9-4-13-8h-1l-6 3-4-7 5-4V66l-5-4 4-7 6 3h1c4-4 8-7 13-8l1-1 1-7h8l1 7 1 1 7 3a1 1 0 0 0 2-2l-8-3-1-7-1-1H70l-1 1-1 7c-5 1-9 4-13 7l-6-2h-2l-5 9 1 1 5 5v14l-5 5-1 1 5 9h2l6-2c4 3 8 6 13 7l1 7 1 1h10l1-1 1-7c5-1 9-4 13-7l6 2h2l5-9-1-1-5-5V68l5-5 1-1Zm-35 7 6 10a1 1 0 0 1-2 2l-6-10a1 1 0 0 1 2-2Zm-4 10h-2l-4-3v-2l4-3a1 1 0 0 1 2 1l-3 3 3 3v1Zm13-9 1 1 4 3v2l-4 3a1 1 0 0 1-2-1l3-3-3-3 1-2ZM68 56a20 20 0 1 1-7 5 1 1 0 1 1 2 1 18 18 0 1 0 6-3 1 1 0 0 1-1-3Z"/></svg>