<svg xmlns="http://www.w3.org/2000/svg" width="500" height="500" fill="none"><path fill="#FAFAFA" d="M249 489c132 0 240-62 240-139 0-76-108-138-240-138S9 274 9 350c0 77 108 139 240 139Z"/><path fill="#EBEBEB" d="M421 446c36 0 64-17 64-37 0-21-28-37-64-37-35 0-64 16-64 37 0 20 29 37 64 37Z"/><path fill="#EBEBEB" d="M208 480 91 412l243-141 118 68-244 141Z"/><path fill="#EBEBEB" d="m22 363 109 63 93-54-109-63-93 54ZM169 316c14 13 34 26 53 35h6a131 131 0 0 0 57-33 2 2 0 0 0-1-3c-19-14-36-26-62-31l-6 1c-15 4-35 14-47 27a3 3 0 0 0 0 4Z"/><path fill="#37474F" d="m273 325-7-70h-6l10 70a1 1 0 0 0 1 0 2 2 0 0 0 2 0Z"/><path fill="#263238" d="M266 255h-6l1 12 4-2 2-1-1-9Z"/><path fill="#37474F" d="M188 249h-6l-10 66a1 1 0 0 0 1 0 2 2 0 0 0 2 0l13-66Z"/><path fill="#263238" d="m182 249-2 17 5 3 3-20h-6Z"/><path fill="#37474F" d="m232 346-6-71h-6l9 71a2 2 0 0 0 3 0Z"/><path fill="#263238" d="m227 284-1-9h-6l1 10 6-1Z"/><path fill="#37474F" d="M222 229h-6l-10 66a1 1 0 0 0 0 1 2 2 0 0 0 2 0 1 1 0 0 0 1-1l13-66Z"/><path fill="#263238" d="M217 231h-1l-8 50 3 2 11-51-5-1Z"/><path fill="#0082F4" d="M268 252c0-2-1-4-5-6a915 915 0 0 0-35-21c-8-4-10-34-15-50v-2l-1-2-1-1-1-1v-2h-1a7 7 0 0 0-1-1l-1-1-2-1h-1v-1h-2v-1h-1a12 12 0 0 0-6 1l-1 1h-2l-7 4-1 1h-1l-1 1a28 28 0 0 0-3 2 14 14 0 0 0-2 2l-2 2a19 19 0 0 0-1 3h-1v1l-3 11c0 8 0 36 2 48 3 20 6 20 10 23 7 6 24 14 31 17 13 5 24-3 32-6l21-13 3-4-1-4Z"/><path fill="#000" d="M268 252c0-2-1-4-5-6a915 915 0 0 0-35-21c-8-4-10-34-15-50v-2l-1-2-1-1-1-1v-2h-1a7 7 0 0 0-1-1l-1-1-2-1h-1v-1h-2v-1h-1a12 12 0 0 0-6 1l-1 1h-2l-7 4-1 1h-1l-1 1a28 28 0 0 0-3 2 14 14 0 0 0-2 2l-2 2a19 19 0 0 0-1 3h-1v1l-3 11c0 8 0 36 2 48 3 20 6 20 10 23 7 6 24 14 31 17 13 5 24-3 32-6l21-13 3-4-1-4Z" opacity=".2"/><path fill="#0082F4" d="m245 269 20-13c5-3 5-6-2-10l-40-23s-46 27-44 32 25 17 34 20c13 6 24-2 32-6Z"/><path fill="#fff" d="m245 269 20-13c5-3 5-6-2-10l-40-23s-46 27-44 32 25 17 34 20c13 6 24-2 32-6Z" opacity=".3"/><path fill="#0082F4" d="M207 165c-5-3-11 1-19 5-5 3-9 6-12 12l-3-2c2-6 7-9 12-12 8-4 14-8 19-5l3 2Z"/><path fill="#fff" d="M207 165c-5-3-11 1-19 5-5 3-9 6-12 12l-3-2c2-6 7-9 12-12 8-4 14-8 19-5l3 2Z" opacity=".5"/><path fill="#0082F4" d="M213 175v-2l-1-2-1-1-1-1v-2h-1a7 7 0 0 0-1-1l-1-1h-1l-1-1h-2c-4 0-9 3-15 6a37 37 0 0 0-2 1l-1 1-3 2-1 1-1 2h-1v1h-1l-1 2v1l-1 1-2 11c-1 14 1 59 6 63 0 0-1-4 9-10l17-11 22-10c-8-4-10-34-15-50Z"/><path fill="#000" d="m266 256-3-4c-5-5-11-9-17-12-5-4-14-6-15-13l-3-2c-8-4-10-34-15-50v-2l-1-2-1-1-1-1v-2h-1a7 7 0 0 0-1-1l-1-1-1-1h-2v-1h-2l-1-1h-3l-1 1h-3v1h-2l-2 1-1 1h-1l-1 1-2 1-1 1h-1l-1 1a28 28 0 0 0-3 1v1a14 14 0 0 0-2 2h-1a15 15 0 0 0 0 1l-1 1a22 22 0 0 0-2 3v1l-2 9c2 0 4-3 6-2 0 13 2 37 4 50 1 11 1 17 16 26 9 5 19 10 29 13 6 0 15-6 19-7l21-13Z" opacity=".1"/><path fill="#F28F8F" d="m257 308 1 21a8 8 0 0 1-6 6c-6 2-6-5-6-5l-5-25 16 3Z"/><path fill="#263238" d="m244 340 1 3 4 2a8 8 0 0 1 5 5c1 3 4 5 7 7 5 1 9 2 14 1 6-1 6-5 6-5l-1-3-36-10Z"/><path fill="#455A64" d="M245 328v2l-1 5v6l8 5c3 2 6 8 14 10 7 1 13-2 14-4s0-4-5-6c-5-3-12-11-12-11l-2-3-1-2a220 220 0 0 0-2-3l-7 3h-1a1 1 0 0 0 0 1v2h-1l-1-2-1-1-1-1-1-1Z"/><path fill="#FAFAFA" d="M261 354a9 9 0 0 1 5-8c6-3 9-2 11 0 2 1 5 4 3 6-2 3-5 4-10 4-6 0-9-2-9-2ZM253 337c1-1 5-5 9-4l-1-1c-4 0-8 3-9 4a1 1 0 0 0 0 1h1ZM264 336a2 2 0 0 0-1-1 12 12 0 0 0-8 4 1 1 0 0 0 0 1 1 1 0 0 0 1 0c1-1 4-5 8-4ZM270 342l-1-1c-4 0-8 3-9 4v1a1 1 0 0 0 1-1c1-1 5-4 9-3ZM258 343a1 1 0 0 0 1-1s4-4 8-3a2 2 0 0 0-1-1 12 12 0 0 0-8 4v1Z"/><path fill="#F28F8F" d="m285 290 2 21a8 8 0 0 1-6 6c-5 2-6-5-6-5l-6-22h16Z"/><path fill="#263238" d="M274 323v2l5 3c2 0 4 2 5 4 2 3 4 5 8 6 4 2 9 2 13 1 6-2 6-5 6-5l-1-4-36-7Z"/><path fill="#455A64" d="M274 311v2l-1 4 1 6c2 3 5 2 8 5 3 2 7 8 14 9 8 1 13-2 14-4s0-4-5-6l-12-10-3-3-1-2-1-3-1-1a1 1 0 0 0-1 1l-6 3h-1a1 1 0 0 0 0 1v2l-2-2-1-1-2-1Z"/><path fill="#FAFAFA" d="M291 336a9 9 0 0 1 5-9c5-3 9-2 11 0 2 1 5 4 3 6-1 3-4 4-10 4-6 1-9-1-9-1ZM282 319a1 1 0 0 0 1 0c0-1 4-5 8-4l-1-1c-4 0-8 3-8 4a1 1 0 0 0-1 1 1 1 0 0 0 1 0ZM293 318a2 2 0 0 0-1-2 12 12 0 0 0-8 5 1 1 0 0 0 1 1c1-1 5-5 8-4ZM300 324l-2-2c-4 0-7 3-8 5h1c1-1 5-5 9-3ZM288 325a1 1 0 0 0 0-1c1-1 5-4 8-3a2 2 0 0 0-1-2 12 12 0 0 0-8 5 1 1 0 0 0 0 1h1Z"/><path fill="#0082F4" d="M279 248c-2-6-25-16-33-20-7-4-12-6-20-12l-19-12c-1 8-1 12 2 20l-24 10c1 10 4 15 7 18 4 4 8 7 19 12l22 12c3 2 4 3 3 7 0 15 5 31 7 43 0 0 8 4 16-2 0 0 0-55-3-61l-3-4 3 1c4 2 5 3 5 9 1 8 3 13 6 23l5 18c3 1 13 0 16-4 0 0-6-51-9-58Z"/><path fill="#fff" d="M279 248c-2-6-25-16-33-20-7-4-12-6-20-12l-19-12c-1 8-1 12 2 20l-24 10c1 10 4 15 7 18 4 4 8 7 19 12l22 12c3 2 4 3 3 7 0 15 5 31 7 43 0 0 8 4 16-2 0 0 0-55-3-61l-3-4 3 1c4 2 5 3 5 9 1 8 3 13 6 23l5 18c3 1 13 0 16-4 0 0-6-51-9-58Z" opacity=".5"/><path fill="#0082F4" d="M256 260c4 2 5 3 5 9l4 17-2-14-2-12c-1-2-10-7-10-7l-19-14c4-4 2-11 2-11 0 8-6 11-6 11a259 259 0 0 1 28 21Z" opacity=".5"/><path fill="#F28F8F" d="M297 175h-15l-1-1 3-1a4 4 0 0 0 2-3v-1h-2l-2 1c-5 1-10 1-14 5l-5 6-10 16-13-19c-5-7-7-11-11-14l-9-3 6 30 18 22c6 6 10 7 12 6 3-3 5-2 12-22l2-4c1-3 3-6 5-6l9-1 5-2 2-1 1-2 1-1 3-2 1-1a1 1 0 0 0 0-1v-1Z"/><path fill="#B16668" d="M253 197c-3 4-4 10-4 10s-1-8 3-12l1 2Z"/><path fill="#263238" d="M223 161c3 0 7 2 10 6s16 24 18 25 3 1 3 3c-1 1-5 9-6 15a11 11 0 0 0 3 8h-4c-1-1-4-6-9-9l-15-17v-31Z"/><path fill="#B16668" d="m278 176-6 5 4-1 2-4Z"/><path fill="#455A64" d="M208 160c-8 0-15 2-19 3-3 1-9 7-9 11a362 362 0 0 0 5 63c14 11 46 2 51-14-4-21-3-31-4-42-2-14-9-20-9-20l-15-1ZM221 137v-4c-10-5-20-9-31-8-4 2-4 9-1 15l5 8 3 4v-9c3 2 7 3 12 3l9-2 3-3v-4Z"/><path fill="#263238" d="M231 124a4 4 0 0 0-4-2 6 6 0 0 0 2-4v-4l-2 1-4 1-5-2a28 28 0 0 0-12-2c-8 1-11 3-13 5s-3 5-3 8c2 2 6 2 10 1l5 4 5 2a6 6 0 0 0 7 1 7 7 0 0 0 3 4l5 2a4 4 0 0 0 3-2v-3a3 3 0 0 0 2 1 2 2 0 0 0 2-3 1 1 0 0 1-2 1 1 1 0 0 1-1-1l1-3a5 5 0 0 0 1-5Z"/><path fill="#F28F8F" d="M197 140c-1 1-2-1-3-2a4 4 0 0 0-6 1c-2 4 0 7 3 9l5-1 1 15c2 5 11 7 16 6 4-1 1-5 0-7v-4h7c3 0 5-4 6-8 1-7 0-11-1-18l-2-7c-1 1-1 3-8 5l-15-3c1 3 0 9-1 12l-2 2Z"/><path fill="#37474F" d="M193 145a1 1 0 0 0 1 1 1 1 0 0 0 0-1 1 1 0 0 0-1 0Z"/><path fill="#263238" d="M187 141v-1h-1v-1h1a1 1 0 0 1 1 0 1 1 0 0 1 0 1h1a1 1 0 0 0-1-2h-1a1 1 0 0 0 0 3Z"/><path fill="#B16668" d="m213 157-9-3c-2 0-5-5-5-6 0 3 1 5 3 7s11 4 11 4v-2Z"/><path fill="#263238" d="m224 134-4-2a2 2 0 0 1 3-1 2 2 0 0 1 1 3ZM206 135l4-2a2 2 0 0 0-2-1h-1a2 2 0 0 0-1 3Z"/><path fill="#B16668" d="m215 134 1 11 6-2-7-9Z"/><path fill="#263238" d="M220 137a2 2 0 0 0 2 2 2 2 0 0 0 1-2 2 2 0 0 0-2-2 2 2 0 0 0-1 2ZM207 138a2 2 0 0 0 2 2 2 2 0 0 0 2-2 2 2 0 0 0-3-2 2 2 0 0 0-1 2Z"/><path fill="#B16668" d="M212 148a1 1 0 0 0 1 2 1 1 0 0 0 1-1v-1a1 1 0 0 0-2-1 1 1 0 0 0 0 1Z"/><path fill="#0082F4" d="M237 212c-4-1-8-1-11 1-4 1-4 3 0 4h11c4-1 4-3 0-5Z"/><path fill="#000" d="M237 212c-4-1-8-1-11 1-4 1-4 3 0 4h11c4-1 4-3 0-5Z" opacity=".3"/><path fill="#FAFAFA" d="m240 208-17 1 2 20 2 2c3 1 7 1 10-1l2-2 1-20Z"/><path fill="#EBEBEB" d="M223 209v4l2 1c4 1 9 1 13-1h1l1-1v-4l-17 1Z"/><path fill="#0082F4" d="M241 209v-3h-3a21 21 0 0 0-14 0h-2v3l3 3c4 2 9 1 13 0l3-3Z"/><path fill="#000" d="M241 209v-3h-3a21 21 0 0 0-14 0h-2v3l3 3c4 2 9 1 13 0l3-3Z" opacity=".2"/><path fill="#0082F4" d="M238 203c-5-1-9-1-14 1-3 1-3 4 1 5h13c4-2 4-4 0-6Z"/><path fill="#0082F4" d="m239 205-1-2h-14l-1 3 3 2h11c2-1 2-2 2-3Z"/><path fill="#000" d="m239 205-1-2h-14l-1 3 3 2h11c2-1 2-2 2-3Z" opacity=".2"/><path fill="#0082F4" d="M236 201h-10c-3 2-3 3 0 4h10c3-1 3-3 0-4Z"/><path fill="#0082F4" d="m237 203-1 1-5 1-5-1h-1v-1l1-1 5-1 5 1 1 1Z"/><path fill="#000" d="m237 203-1 1-5 1-5-1h-1v-1l1-1 5-1 5 1 1 1Z" opacity=".5"/><path fill="#0082F4" d="m237 203-1 1-5 1-5-1h-1l1-1 5-1 5 1h1Z"/><path fill="#000" d="m237 203-1 1-5 1-5-1h-1l1-1 5-1 5 1h1Z" opacity=".2"/><path fill="#000" d="M234 204a1 1 0 0 1 1-1v1a1 1 0 0 1-1 0Z" opacity=".5"/><path fill="#0082F4" d="m224 222 2 2h11l3-2v-7l-3 2h-11c-2 0-3-1-3-2l1 7Z"/><path fill="#37474F" d="m229 223-1-2-2-1a3 3 0 0 0 4 3h-1Z"/><path fill="#37474F" d="M227 220h1l1 1 1 2a3 3 0 0 0 0-3 3 3 0 0 0-3-1v1Z"/><path fill="#F28F8F" d="M169 216c0-9 0-18 3-37 3-13 5-15 17-16 5 13-1 27-1 27l-3 23s24 6 30 4c2-1 6-5 8-5v4c1 1 3 4 8 6h9v-1l1 1a2 2 0 0 1 0 2v1h-1v2l-2 2-1 1h-1a8 8 0 0 1-6 3c-6 0-12-3-19-3h-5a214 214 0 0 1-27-2c-8-2-11-3-10-12Z"/><path fill="#263238" d="M189 163c-7 1-9 1-12 3-2 2-4 4-6 16l-4 33c0 2 0 4 2 5 1-2 8-8 16-7 2 0 2-1 2-4l2-19c2-4 8-15 0-27Z"/><path fill="#37474F" d="m186 212 1 1-8 8-3 6-5-1a7 7 0 0 1-2-6c0-2 4-6 9-7l8-1ZM254 196c-1 2-2 10 1 15 2 3 4 4 5 4l-3 3c-2 2-4 2-8-1-2-1-3-12 5-21Z"/><path fill="#455A64" d="m116 258-2-1c-4-3-8-4-13-5h-3a23 23 0 0 0-16 9v1l-1 1-1 1v1c-2 3-3 7-3 11v4c0 20 14 45 32 55l2 1c4 3 8 4 13 4h3a24 24 0 0 0 17-10v-1c3-4 4-8 4-12v-5c0-20-14-44-32-54Zm-6 71c-15-9-27-29-27-46s12-24 27-16c14 9 26 29 26 46s-12 24-26 16Z"/><path fill="#263238" d="m111 261-2-1c-9-5-17-5-22-2h-2v1a10 10 0 0 0-1 1 8 8 0 0 0-2 1v1h-1v1l-1 1v1a17 17 0 0 0-1 3l-1 1v3l-1 1v7c0 20 14 45 32 55l2 1c5 3 9 4 14 4h5v-1h2v-1h1c5-3 9-10 9-20v-2c0-20-14-45-31-55Zm-1 68c-15-9-27-29-27-46s12-24 27-16c14 9 26 29 26 46s-12 24-26 16Z"/><path fill="#0082F4" d="M129 324c-4 5-11 6-19 1-13-7-24-26-24-41 0-6 2-11 6-14-3 3-4 7-4 13 0 15 10 33 23 40 7 5 14 5 18 1Z"/><path fill="#000" d="M129 324c-4 5-11 6-19 1-13-7-24-26-24-41 0-6 2-11 6-14-3 3-4 7-4 13 0 15 10 33 23 40 7 5 14 5 18 1Z" opacity=".2"/><path fill="#0082F4" d="M110 267c-15-8-27-1-27 16s12 37 26 46c15 8 27 1 27-16s-12-37-26-46Zm0 58c-13-7-24-26-24-41s11-21 24-13c13 7 23 26 23 41s-10 21-23 13Z"/><path fill="#EBEBEB" d="M132 304v-1l-20-5-1-1 15-9-15 9-1-1 6-21h-1l-5 20-1-1-5-26h-1l5 26-1-1-14-24 14 25v1l-20-18v1l20 18v1l-20-6v1l20 5 1 1-15 9v1l15-9 1 1-6 20 1 1 5-21 1 1 5 27h1l-5-26h1l14 25h1l-15-25v-1l20 17v-1l-20-17v-1l20 5Z"/><path fill="#E0E0E0" d="M111 287c-3-1-5-2-6-1l-2 1v1h-1v1h-1v4a20 20 0 0 0 10 16h5l1-1c2-1 3-3 3-6 0-5-4-12-9-15Zm-3 17-4-7 1 1 4 1v5h-1Zm5-10h-2l-1 1-2-6a15 15 0 0 1 6 4l-1 1Zm-7-2 2 4c-2 0-4-2-5-3l2-5 1 4Zm5 14 1-3v-3l4 7h-1l-4-1Zm4-5c-1-3-2-2-3-3a2 2 0 0 1 1-2 2 2 0 0 1 3 1l1 6-2-2Z"/><path fill="#000" d="M111 287c-3-1-5-2-6-1l-2 1v1h-1v1h-1v4a20 20 0 0 0 10 16h5l1-1c2-1 3-3 3-6 0-5-4-12-9-15Zm-3 17-4-7 1 1 4 1v5h-1Zm5-10h-2l-1 1-2-6a15 15 0 0 1 6 4l-1 1Zm-7-2 2 4c-2 0-4-2-5-3l2-5 1 4Zm5 14 1-3v-3l4 7h-1l-4-1Zm4-5c-1-3-2-2-3-3a2 2 0 0 1 1-2 2 2 0 0 1 3 1l1 6-2-2Z" opacity=".2"/><path fill="#E0E0E0" d="M110 288c-5-3-9-1-9 5s4 12 9 15c4 3 8 1 8-5s-4-12-8-15Zm-3 0c2 0 6 4 7 5l-3 1c-1 1 0 3-2 2l-2-8Zm-2 0 1 4 2 5c0 1-6-1-6-4 0-2 2-5 3-5Zm2 17-5-8 3 1 4 1c1 2 0 7-2 6Zm8 2h-5v-7c2-1 6 5 5 7Zm-1-6c-2-2-3-1-3-3-1-2 3-4 5-1 1 2 2 7 1 8l-3-4Z"/><path fill="#455A64" d="M110 301c1 1 2 0 2-1a6 6 0 0 0-2-5c-2-1-3 0-3 1a6 6 0 0 0 3 5Z"/><path fill="#FAFAFA" d="m185 360-10-22-3-7c-2-5-6-9-10-11v3c3 2 6 5 7 9l2 3-8-4v3l10 5 10 22a1 1 0 0 0 1 1l1-1a1 1 0 0 0 0-1Z"/><path fill="#EBEBEB" d="M156 329c-3 7-2 16-2 19s-1 2-2 0c-1-3-3-13 0-21l4 2Z"/><path fill="#455A64" d="M163 350c0-5-4-12-8-15h-7l-3 2 12 21 4-2 2-6Z"/><path fill="#263238" d="M151 337c4 3 8 10 8 15 0 6-4 8-8 5-5-2-9-9-9-15 0-5 4-7 9-5Z"/><path fill="#000" d="M151 344a7 7 0 0 1 3 5c0 2-2 3-3 2a7 7 0 0 1-3-5c0-2 1-3 3-2Z"/><path fill="#FAFAFA" d="M154 329c-4 6-3 15-3 18 1 3-1 3-2 0-1-2-3-12 1-21l4 3Z"/><path fill="#37474F" d="m163 332-36-22v4l31 19 4 2a2 2 0 0 0 3-1v-4l-2 2Z"/><path fill="#0082F4" d="m138 396-17-10 56-32 17 10-56 32Z"/><path fill="#0082F4" d="M121 386v4l17 10v-4l-17-10Z"/><path fill="#000" d="M121 386v4l17 10v-4l-17-10Z" opacity=".3"/><path fill="#0082F4" d="M194 364v4l-56 32v-4l56-32Z"/><path fill="#000" d="M194 364v4l-56 32v-4l56-32Z" opacity=".1"/><path fill="#EBEBEB" d="M98 348a1 1 0 0 1 1 0l2 1c4 2 8 6 10 11l4 7 10 22a1 1 0 0 1 0 2h-1a1 1 0 0 1-1-1l-10-21-13-7a1 1 0 0 1-1-2 1 1 0 0 1 2-1l10 6-2-4c-2-4-5-8-10-10l-1-1a1 1 0 0 1 0-2Z"/><path fill="#E0E0E0" d="M97 363c-4 7-2 16-2 19s-2 2-2 0c-1-3-4-13 0-21l4 2Z"/><path fill="#455A64" d="M104 384c0-5-4-12-9-15h-6l-4 2 13 21 3-2c2-1 3-3 3-6Z"/><path fill="#37474F" d="M91 371c5 3 9 10 9 15 0 6-4 8-9 5-4-2-8-9-8-15 0-5 4-7 8-5Z"/><path fill="#263238" d="M91 378a7 7 0 0 1 4 5c0 2-2 3-4 2a7 7 0 0 1-3-5c0-2 2-3 3-2Z"/><path fill="#EBEBEB" d="M95 363c-4 6-3 15-3 18s-1 3-2 0c-1-2-3-12 1-21l4 3Z"/><path fill="#455A64" d="m39 237 3-5-14-9a2 2 0 0 0-2 1 5 5 0 0 0-2 4 2 2 0 0 0 1 1l14 8Z"/><path fill="#37474F" d="M38 236c0 1 1 2 3 1a5 5 0 0 0 2-4c0-1-1-2-2-1a5 5 0 0 0-3 4Z"/><path fill="#E0E0E0" d="M41 233h1l9 6-3 2-8-5-1-1a3 3 0 0 1 2-2Z"/><path fill="#455A64" d="m77 215 3-5-14-9a2 2 0 0 0-2 1 5 5 0 0 0-2 4 2 2 0 0 0 1 1l14 8Z"/><path fill="#37474F" d="M76 214c0 1 1 2 3 1a5 5 0 0 0 2-4c0-1-1-2-2-1a5 5 0 0 0-3 4Z"/><path fill="#E0E0E0" d="M79 211a1 1 0 0 1 1 0l10 6-4 2-8-5v-1a3 3 0 0 1 1-2Z"/><path fill="#455A64" d="m91 232-7 4 63 30a16 16 0 0 1 7 10l9 56a1 1 0 0 0 0 1 1 1 0 0 0 1 0l1-2-5-59c-1-4-3-8-6-10l-63-30Z"/><path fill="#0082F4" d="m96 334-52-30a7 7 0 0 1-4-5v-4a7 7 0 0 1 4-5l52-30a7 7 0 0 1 6 0l53 30a7 7 0 0 1 3 5v4a7 7 0 0 1-3 5l-53 30a7 7 0 0 1-6 0Z"/><path fill="#000" d="m97 335-1-1-52-30a7 7 0 0 1-4-5v-4a7 7 0 0 1 3-5c-1 1-1 3 1 4l52 30 1 11Z" opacity=".3"/><path fill="#000" d="M158 295v4a7 7 0 0 1-3 5l-53 30a7 7 0 0 1-5 1l-1-11a7 7 0 0 0 6 0l53-30v-4a7 7 0 0 1 3 5Z" opacity=".1"/><path fill="#0082F4" d="m114 270-52 30-4 1h-2l-3-2c-2-1-4-3-4-6l-8-44v-1l2-4 1-1 52-30a7 7 0 0 1 6 0l3 2a7 7 0 0 1 2 1 9 9 0 0 1 2 3v1l8 45a6 6 0 0 1-3 5Z"/><path fill="#0082F4" d="m50 254 8 45a3 3 0 0 0 4 1l52-30a6 6 0 0 0 3-5l-8-45a3 3 0 0 0-4-1l-52 30a6 6 0 0 0-3 5Z"/><path fill="#000" d="m50 254 8 45a3 3 0 0 0 4 1l52-30a6 6 0 0 0 3-5l-8-45a3 3 0 0 0-4-1l-52 30a6 6 0 0 0-3 5Z" opacity=".1"/><path fill="#000" d="M61 301h-4l-1-1-3-1c-2-1-4-3-4-6l-8-44v-3l10 6-1 2 8 45a2 2 0 0 0 3 2Z" opacity=".3"/><path fill="#37474F" d="m136 372-1 4v8c4 5 8 5 11 9 4 3 8 7 16 7 9-1 13-7 10-9s-10-4-19-13c-5-4-17-6-17-6Z"/><path fill="#FFA8A7" d="M145 348s1 20 4 24c3 5 8 9 12 13l4 3c2 2 1 3-1 3-4 1-7 1-12-2l-12-9-4-4v-3l-1-4-4-17 14-4Z"/><path fill="#37474F" d="m159 357-1 4v8c4 5 8 5 11 9 4 3 8 7 16 7 9 0 12-7 10-8-3-3-10-5-19-13-5-5-17-7-17-7Z"/><path fill="#FFA8A7" d="M168 333s1 20 4 24c3 5 8 9 12 13l4 3c2 2 1 3-1 3-4 2-7 1-12-2l-12-9-4-4v-3l-1-4-4-17 14-4Z"/><path fill="#37474F" d="M163 295c-4-7-18-13-26-17l-16-9-52 5s-2 12 3 21 15 14 22 17l27 13s-1 3 1 10l6 17 6 15c5 1 9 0 13-2l-4-47c-1-5-1-7-5-10l6 3c0 7 2 13 4 19l10 24c3 1 10-1 12-3 0 0-3-48-7-56Z"/><path fill="#263238" d="m144 311-6-3-29-22c4-1 8-5 10-9 0 5-4 9-4 9l29 25Z"/><path fill="#FFA8A7" d="M139 216v-4c0-5 2-9 3-14l1-2 1-1 1-1 1 1a4 4 0 0 1 1 3l-1 3h1l5-6 2-4 2-2h1v2a3 3 0 0 0 0 3l1 1v3l1 2v3l-2 5-4 7-2 4-1 4v6c0 21-2 25-4 28-1 2-5 5-12-1-8-5-25-25-25-25v-22s7 1 10 6l17 21 3-20Z"/><path fill="#F28F8F" d="M146 205v8l1-4c1-3 0-4-1-4Z"/><path fill="#0082F4" d="M109 208c5 2 8 3 12 7l15 20 2-12 6 4c5 1 6-1 6-1v15c0 7-1 15-5 18-5 2-10 1-15-5l-22-21 1-25Z"/><path fill="#000" d="M109 208c5 2 8 3 12 7l15 20 2-12 6 4c5 1 6-1 6-1v15c0 7-1 15-5 18-5 2-10 1-15-5l-22-21 1-25Z" opacity=".5"/><path fill="#000" d="m136 235-1 11s-3-7-1-13l2 2Z" opacity=".2"/><path fill="#0082F4" d="m138 224 1-5 5 4h6v5h-6c-3 0-5-2-6-4Z"/><path fill="#000" d="m138 224 1-5 5 4h6v5h-6c-3 0-5-2-6-4Z" opacity=".7"/><path fill="#0082F4" d="m122 270-5-10 2-13c6-3 7-10 5-17l-6-13-9-9h-5s-12-1-19 2l-11 4c2 4 4 14 2 20-2 7-4 5-4 5-2 6-2 13-3 19l-1 23c10 5 25 5 37 1 10-3 17-12 17-12Z"/><path fill="#000" d="m122 270-5-10 2-13c6-3 7-10 5-17l-6-13-9-9h-5s-12-1-19 2l-11 4c2 4 4 14 2 20-2 7-4 5-4 5-2 6-2 13-3 19l-1 23c10 5 25 5 37 1 10-3 17-12 17-12Z" opacity=".6"/><path fill="#000" d="M105 251a14 14 0 0 1-19-3 11 11 0 0 0 9 7c8 1 10-4 10-4Z" opacity=".2"/><path fill="#263238" d="M113 183c5-5 4-14-1-18-6-5-17-6-23-5-4 1-9 4-10 8-4 4-6 10-4 17 2 8 8 11 8 14l30-16Z"/><path fill="#263238" d="M79 168c-3 0-8 7-6 17 1 8-3 14-1 18 2 3 6 4 7 3a6 6 0 0 1-2-5s2 6 10 7l12-1s11 2 15-9c-4 1-8-7-8-18v-12H79Z"/><path fill="#FFA8A7" d="M78 183c3 0 4 2 6 3a2 2 0 0 0 2-1c0-2 0-7 2-10 3-4 7-5 11-2 5-5 13-3 14 13 1 12-3 16-4 17-3 2-6 1-9 1v6s8 7 1 10c-11 3-17-9-17-9l-1-17c0 1-4 2-6-1-3-3-3-9 1-10Z"/><path fill="#874C4C" d="m97 194 5 2a3 3 0 0 1-3 2 3 3 0 0 1-2-4Z"/><path fill="#F28F8F" d="M100 198a3 3 0 0 0-3-3 2 2 0 0 0 2 2l1 1ZM101 181l1 10 6-1c-2-4-4-7-7-9Z"/><path fill="#263238" d="m110 180-4-1a2 2 0 0 1 3-2 2 2 0 0 1 1 3ZM92 182l4-2a2 2 0 0 0-3-1 2 2 0 0 0-1 3ZM106 183a2 2 0 0 0 3 2 1 1 0 0 0 1-2 2 2 0 0 0-3-1 1 1 0 0 0-1 1ZM94 185a2 2 0 0 0 2 1 1 1 0 0 0 1-1 2 2 0 0 0-2-1 1 1 0 0 0-1 1Z"/><path fill="#F28F8F" d="M100 204c-4 0-10-2-12-5 0 0 0 3 3 5l9 2v-2Z"/><path fill="#E0E0E0" d="m101 220-4-4c-3 0-6 0-8-2l-5-5v2c2 4 8 12 17 9Z"/><path fill="#F0F0F0" d="M98 216c-1 0-2 0-3 2l-2 6-4-3c-2-1-7-6-8-10l2-2 1-2v1l4 4c7 4 7 2 10 4Z"/><path fill="#E0E0E0" d="m101 220-1-5a6 6 0 0 0 0-5c3 3 7 8 1 10Z"/><path fill="#F0F0F0" d="M101 217c-1-2 0-2 1-2l4 4v-5l-6-9v9l1 3Z"/><path fill="#455A64" d="m44 267 1 4 46 27a16 16 0 0 1 6 11l5 59a1 1 0 0 1 0 1 1 1 0 0 1-1 0l-19-11v-4l16 9-7-50a16 16 0 0 0-7-11l-41-25c-8-5-6-5 1-10Z"/><path fill="#455A64" d="m54 294-2-1c-4-3-9-4-14-5l-2 1a23 23 0 0 0-16 9h-1v1l-1 1v1c-2 3-3 7-3 11v5c0 20 14 44 31 54l2 1c4 3 9 4 14 4h3a24 24 0 0 0 16-9v-1h1v-1c2-4 4-8 4-12v-5c0-20-15-44-32-54Zm-7 71c-14-9-26-29-26-46s12-24 26-15c15 8 27 29 27 45 0 17-12 24-27 16Z"/><path fill="#37474F" d="m48 297-2-1c-8-5-16-5-22-2l-1 1-1 1h-1a12 12 0 0 0-1 2h-1v1l-1 1v1a21 21 0 0 0-2 6l-1 1v1a33 33 0 0 0 0 2v6c0 20 14 44 31 54l2 1c5 3 10 4 14 4h6v-1h1a14 14 0 0 0 1 0v-1h1c5-3 9-10 9-20v-2c0-20-14-45-32-55Zm-1 68c-14-9-26-29-26-46s12-24 26-15c15 8 27 29 27 45 0 17-12 24-27 16Z"/><path fill="#0082F4" d="M67 360c-4 5-11 6-20 1-13-7-23-25-23-40 0-7 2-12 5-15-2 3-3 7-3 13 0 15 10 33 23 41 7 4 14 4 18 0Z"/><path fill="#000" d="M67 360c-4 5-11 6-20 1-13-7-23-25-23-40 0-7 2-12 5-15-2 3-3 7-3 13 0 15 10 33 23 41 7 4 14 4 18 0Z" opacity=".2"/><path fill="#0082F4" d="M47 304c-14-9-26-2-26 15s12 37 26 46c15 8 27 1 27-16 0-16-12-37-27-45Zm0 57c-13-7-23-25-23-40s10-22 23-14c13 7 24 26 24 41s-11 21-24 13Z"/><path fill="#EBEBEB" d="M70 340v-1l-21-5v-1l15-8v-1l-15 9-1-1 6-20-1-1-5 20-1-1-5-26h-1l5 26-1-1-14-24h-1l15 25-1 1-19-18-1 1 20 18 1 1-21-6 1 1 20 6h1l-16 9 1 1 15-9v1l-5 21 6-20h1l5 27h1l-6-26h1l15 25-14-25v-1l20 17-20-18v-1l20 5Z"/><path fill="#E0E0E0" d="M49 323h-8l-1 1-1 1a5 5 0 0 0 0 1v3a20 20 0 0 0 9 16h6l1-1c2-1 3-3 3-6-1-5-4-12-9-15Zm-3 17-4-7 1 1c2 2 2 0 3 1v5Zm5-10h-1l-1 1h-1l-2-6c2 0 5 3 6 4l-1 1Zm-7-1 2 3c-2 0-5-2-5-3l2-5 1 4v1Zm5 14v-6c2 1 5 5 4 6l-4-1v1Zm4-6-3-3a2 2 0 0 1 1-2 2 2 0 0 1 2 1l2 6-2-2Z"/><path fill="#000" d="M49 323h-8l-1 1-1 1a5 5 0 0 0 0 1v3a20 20 0 0 0 9 16h6l1-1c2-1 3-3 3-6-1-5-4-12-9-15Zm-3 17-4-7 1 1c2 2 2 0 3 1v5Zm5-10h-1l-1 1h-1l-2-6c2 0 5 3 6 4l-1 1Zm-7-1 2 3c-2 0-5-2-5-3l2-5 1 4v1Zm5 14v-6c2 1 5 5 4 6l-4-1v1Zm4-6-3-3a2 2 0 0 1 1-2 2 2 0 0 1 2 1l2 6-2-2Z" opacity=".2"/><path fill="#E0E0E0" d="M47 324c-5-3-9-1-9 5s4 12 9 15 9 1 9-5c0-5-4-12-9-15Zm-2 1 7 4-3 1c-2 1-1 3-2 2-1 0-4-8-2-7Zm-3-1 2 4 2 5c0 1-6-1-6-3-1-3 2-6 2-6Zm3 17-5-8 3 1c2 2 2 0 3 1 2 2 1 7-1 6Zm8 2h-5v-7c1-1 6 5 5 7Zm-1-6c-2-2-3-1-3-3-1-2 3-4 4-1 2 2 2 7 2 8-1 1-2-2-3-4Z"/><path fill="#455A64" d="M47 337c2 1 3 0 3-1a6 6 0 0 0-3-5c-1-1-2 0-2 2a6 6 0 0 0 2 4Z"/><path fill="#FFA8A7" d="m57 266 5-35c3-11 3-12 11-16 4 3 8 12 6 27l-6 27a629 629 0 0 0 37 36v2l-2 6v1h-1l-1 1-2 2a2 2 0 0 1-3 0l-1-3a64 64 0 0 0-3-8l-1-1-6-3-4-5-25-15c-6-4-6-7-4-16Z"/><path fill="#0082F4" d="m74 214-8 5c-1 1-3 4-5 16l-6 36c0 6 0 8 4 10l24 14s5-9 10-8l-19-18 6-29s5-15-6-26Z"/><path fill="#000" d="m74 214-8 5c-1 1-3 4-5 16l-6 36c0 6 0 8 4 10l24 14s5-9 10-8l-19-18 6-29s5-15-6-26Z" opacity=".5"/><path fill="#0082F4" d="m80 293 4 2 4-6 6-2-4-3s-3-1-6 2l-4 7Z"/><path fill="#000" d="m80 293 4 2 4-6 6-2-4-3s-3-1-6 2l-4 7Z" opacity=".7"/><path fill="#37474F" d="m294 309 2-1 1-105-2 2-1 104Z"/><path fill="#455A64" d="m294 309-3-1 1-105 3 2-1 104ZM292 203l101 59v-3l-101-59v3Z"/><path fill="#455A64" d="m294 233 99 57v-3l-99-57v3Z"/><path fill="#263238" d="m390 286-95-56v-3l95 56"/><path fill="#37474F" d="m393 363 3-1V257l-3 2v104Z"/><path fill="#455A64" d="m393 363-3-1V257l3 2v104Z"/><path fill="#263238" d="M393 363v-1l3-2v2l-3 1ZM393 363v-1l-3-2v2l3 1Z"/><path fill="#37474F" d="M396 266 207 375v-9l189-109v9Z"/><path fill="#37474F" d="m207 470 3-1V365l-3 1v104Z"/><path fill="#455A64" d="m207 470-2-1V365l2 1v104Z"/><path fill="#37474F" d="m109 413 2-1V307l-2 2v104Z"/><path fill="#455A64" d="m109 413-3-1V307l3 2v104Z"/><path fill="#455A64" d="m106 316 101 58v-8l-101-59v9ZM109 337l98 57v-3l-98-57v3Z"/><path fill="#263238" d="m205 390-96-56 2-1 94 54"/><path fill="#0082F4" d="m207 366-101-59 189-108 101 58-189 109Z"/><path fill="#fff" d="m207 366-101-59 189-108 101 58-189 109Z" opacity=".8"/><path fill="#263238" d="M207 470v-1l3-2v2l-3 1ZM207 470v-1l-2-2v2l2 1ZM109 413v-1l2-2v2l-2 1ZM109 413v-1l-3-2v2l3 1ZM247 254l-20 11v1l27 16a1 1 0 0 0 1 0l19-12-27-16Z"/><path fill="#0082F4" d="m254 281-27-15a1 1 0 0 1 0-1l19-11 28 16-19 11h-1Z"/><path fill="#EBEBEB" d="m246 252-18 11h-1v2l1 1 26 15a1 1 0 0 0 1 0l18-11v-2l-27-16Z"/><path fill="#F0F0F0" d="m273 268-3 2-15 9a1 1 0 0 1-1 0l-26-15v-1l18-11 27 16Z"/><path fill="#E0E0E0" d="M254 279v2l-26-15-1-1v-2l1 1 26 15Z"/><path fill="#fff" d="m273 268-3 2-15 8a1 1 0 0 1-1 0l-24-13-2-2v-1h2l16-10 27 16Z"/><path fill="#000" d="M270 267v1a1 1 0 0 0 1 0v-1a1 1 0 0 0-1 0Z" opacity=".1"/><path fill="#263238" d="M273 266a1 1 0 0 0-1 0l-2 2 2-2h1a1 1 0 0 1 0 1 2 2 0 0 0 0-1ZM273 268Z"/><path fill="#000" d="M267 266a1 1 0 0 0 1 0 1 1 0 0 0-1 0Z" opacity=".1"/><path fill="#263238" d="M270 264a1 1 0 0 0-1 0l-2 2h1l1-1 1-1a1 1 0 0 1 0 2h1a1 1 0 0 0-1-2Z"/><path fill="#000" d="M265 264v1a1 1 0 0 0 1 0v-1a1 1 0 0 0-1 0Z" opacity=".1"/><path fill="#263238" d="M268 263a1 1 0 0 0-2 0l-1 2 1-2h1a1 1 0 0 1 1 1 2 2 0 0 0 0-1Z"/><path fill="#000" d="M262 263a1 1 0 0 0 1 0 1 1 0 0 0-1 0Z" opacity=".1"/><path fill="#263238" d="M265 261a1 1 0 0 0-1 0l-2 2h1l1-1v-1h1a1 1 0 0 1 0 2 1 1 0 0 0 0-2Z"/><path fill="#000" d="M259 261v1a1 1 0 0 0 1 0h1l-1-1a1 1 0 0 0-1 0Z" opacity=".1"/><path fill="#263238" d="M262 260a1 1 0 0 0-1 0l-1 2 1-2h1a1 1 0 0 1 1 1 1 1 0 0 0-1-1Z"/><path fill="#000" d="M257 260a1 1 0 0 0 1 0 1 1 0 0 0-1 0Z" opacity=".1"/><path fill="#263238" d="M260 258a1 1 0 0 0-2 0l-1 2 2-2a1 1 0 0 1 1 1v1-1a2 2 0 0 0 0-1Z"/><path fill="#000" d="M254 258v1a1 1 0 0 0 1 0v-1a1 1 0 0 0-1 0Z" opacity=".1"/><path fill="#263238" d="M257 257a1 1 0 0 0-1 0l-2 2h1l1-2h1a1 1 0 0 1 0 1h1a1 1 0 0 0-1-1Z"/><path fill="#000" d="M252 257h-1 2-1Z" opacity=".1"/><path fill="#263238" d="M254 255a1 1 0 0 0-1 0l-1 2 1-2h1a1 1 0 0 1 1 1v1-1a2 2 0 0 0-1-1Z"/><path fill="#000" d="M249 255v1a1 1 0 0 0 1 0v-1a1 1 0 0 0-1 0Z" opacity=".1"/><path fill="#263238" d="M252 254a1 1 0 0 0-1 0l-2 2 2-2h1a1 1 0 0 1 0 1 1 1 0 0 0 0-1Z"/><path fill="#000" d="M246 254a1 1 0 0 0 1 0 1 1 0 0 0-1 0Z" opacity=".1"/><path fill="#263238" d="M249 252a1 1 0 0 0-1 0l-1 2 1-2h1a1 1 0 0 1 0 1v1h1v-1a1 1 0 0 0-1-1Z"/><path fill="#EBEBEB" d="M252 276a1 1 0 0 1-1 0 1 1 0 0 1 0-1l15-8a1 1 0 0 1 0 1l-14 8ZM250 275a1 1 0 0 1 0-1l14-8a1 1 0 0 1 1 0v1l-15 8ZM248 274a1 1 0 0 1 0-1l14-8a1 1 0 0 1 1 1l-15 8ZM246 273a1 1 0 0 1 0-1l15-8a1 1 0 0 1 0 1l-14 8h-1ZM245 272a1 1 0 0 1-1 0 1 1 0 0 1 0-1l15-8a1 1 0 0 1 1 0l-1 1-14 8ZM243 271a1 1 0 0 1-1 0 1 1 0 0 1 0-1h1l14-8a1 1 0 0 1 1 0v1l-15 8ZM241 270a1 1 0 0 1 0-1l14-8a1 1 0 0 1 1 0v1l-15 8ZM239 269a1 1 0 0 1 0-1l15-8a1 1 0 0 1 0 1l-14 8h-1ZM238 268a1 1 0 0 1-1-1l15-8a1 1 0 0 1 1 0 1 1 0 0 1-1 1l-14 8ZM236 267a1 1 0 0 1-1 0 1 1 0 0 1 1-1l14-8a1 1 0 0 1 1 0l-15 9ZM234 266a1 1 0 0 1 0-1l14-8a1 1 0 0 1 1 0l-15 9ZM232 265a1 1 0 0 1 0-1l15-8a1 1 0 0 1 0 1l-14 8h-1ZM231 264a1 1 0 0 1-1 0 1 1 0 0 1 0-1l15-8h1a1 1 0 0 1-1 0l-14 9Z"/><path fill="#0082F4" d="M253 277a1 1 0 0 1 0-1l15-9a1 1 0 0 1 1 1l-15 9h-1Z"/><g fill="#455A64" opacity=".3"><path d="m261 266-1-1h1-2l-1 1h-1s-1 0 0 0v1h-2v1l2-1c-1 0 0 0 0 0v-1h2v-1h1v1h1Zm0 0-1-1v1h1ZM254 269v-1 1h-2v1h-2v1-1h2v-1h2v1-1Zm0 0ZM259 271h-1v-1h1-2v1h-2v1h-2v1l2-1v-1h2c-1 0 0 0 0 0v-1h1v1h1Zm0 0h-1 1ZM263 267h1-1v1h-2c0 1 0 0 0 0v1l-1-1v1h-1 2v-1 1h1v-1h1v-1l1 1-1-1Zm1 1ZM250 260v-1h-1 1-1c-1 0 0 0 0 0v1h-1s0-1 0 0h-1l-1 1h-1l-1 1h1l1-1v-1h3v-1l1 1s1 0 0 0Zm0 0ZM243 263v-1 1h-2v1c-1 0 0 0 0 0h-1l-1 1h1v-1h2v-1c1 0 0 0 0 0h1l1 1-1-1Zm0 0c1 1 0 0 0 0ZM248 265l-1-1h1-1v1h-2l-1 1h-1l-1 1h2v-1h1v-1h2v-1 1h1s1 0 0 0Zm0 0ZM253 261h-1v1h-2v1h-1 1s-1 0 0 0h1v-1h2v-1Zm0 1ZM249 269v-2 1h-2v1h-2v1h-1l-1 1 1-1h1v-1h3v-1s-1 0 0 0l1 1s1 0 0 0Zm0 0v-1 1ZM253 265h-1v1h-1s1 0 0 0h-1v1-1l-1 1s1 0 0 0h2v-1 1-1h1c-1 0 0 0 0 0l1-1v1-1Zm0 1v-1 1ZM257 263v-1 1h-2v1h-1v1-1h2v-1h1Z" opacity=".3"/></g><path fill="#000" d="m261 282 2 2 20-12 2-2v-1 1l-5 1-19 11Z" opacity=".1"/><path fill="#FFA8A7" d="m280 269 5-1v1l-3 3-2-3Z"/><path fill="#263238" d="M285 269v-1l-1 1h1Z"/><path fill="#0082F4" d="M266 281h1v-1l15-8v-1a2 2 0 0 0-2-2l-14 9h-1s2 2 1 3Z"/><path fill="#EBEBEB" d="M268 280v-2l-1-1h-1l2 2v1Z"/><path fill="#0082F4" d="m268 280-2-3v1l1 2h1Z"/><path fill="#EBEBEB" d="m266 281 1-1-1-2h-1s2 2 1 3Z"/><path fill="#000" d="M285 269v-1l-3 2-16 9v2h1v-1l15-8 3-3Z" opacity=".1"/><path fill="#F28F8F" d="m263 283 3-2v-1l-1-2-3 2v2a1 1 0 0 0 1 1Z"/><path fill="#000" d="M263 282a2 2 0 0 0-1-2v2a1 1 0 0 0 1 1v-1ZM323 231l-29-17a2 2 0 0 0-2 0l-50 29v1l29 17 52-30Z" opacity=".1"/><path fill="#37474F" d="M321 227v1a3 3 0 0 1-1 2l-47 27-2 1-1-1-26-14a3 3 0 0 1-1-3l28 16 50-29Z"/><path fill="#455A64" d="m321 227-28-16a2 2 0 0 0-1 0l-49 28v1l28 16 50-29Z"/><path fill="#37474F" d="m271 254-15-9 44-25 15 8-44 26Z"/><path fill="#263238" d="M315 228v1l-15-9-43 25h-1l44-25 15 8ZM264 230l7 4 13-8h1l-8-4-13 8Z"/><path fill="#37474F" d="m264 230 7 4 13-8-7-4-13 8Z"/><path fill="#0082F4" d="M271 256v2l2-1 47-27a3 3 0 0 0 1-2v-1l-50 29Z"/><path fill="#263238" d="M271 256v2l2-1 47-27a3 3 0 0 0 1-2v-1l-50 29Z"/><path fill="#37474F" d="M272 256a3 3 0 0 0 3 0l47-27a3 3 0 0 0 1-2l5-31a3 3 0 0 0-1-2l-48 28a2 2 0 0 0-1 1l-6 33Z"/><path fill="#455A64" d="M271 256h1l6-33a2 2 0 0 1 1-1l48-28v-1l-49 28a2 2 0 0 0-1 2l-6 33Z"/><path fill="#263238" d="M278 222h-1v1l-6 33h1l6-33v-1Z"/><path fill="#0082F4" d="M299 228c0-2 2-5 4-6s4-1 4 2l-5 6c-2 1-4 0-3-2Z"/><path fill="#000" d="m226 287-29-17a2 2 0 0 0-1 0l-51 29v1l30 17 51-30Z" opacity=".1"/><path fill="#37474F" d="M224 283v1a3 3 0 0 1-1 2l-47 27a3 3 0 0 1-3 0l-25-14a3 3 0 0 1-2-3v-1 1l29 16 49-29Z"/><path fill="#455A64" d="m224 283-28-16a2 2 0 0 0-1 0l-49 28v1l29 16 49-29Z"/><path fill="#37474F" d="m174 310-15-9 44-25 15 8-44 26Z"/><path fill="#263238" d="M218 284v1l-15-9-43 25h-1l44-25 15 8ZM167 285v1l8 4 13-8-8-4-13 7Z"/><path fill="#37474F" d="m167 286 8 4 13-8-8-4-13 8Z"/><path fill="#0082F4" d="M175 312v2l1-1 47-27a3 3 0 0 0 1-2v-1l-49 29Z"/><path fill="#263238" d="M175 312v2l1-1 47-27a3 3 0 0 0 1-2v-1l-49 29Z"/><path fill="#37474F" d="M175 312a3 3 0 0 0 3 0l47-27a3 3 0 0 0 1-2l6-31-1-2-49 28a2 2 0 0 0-1 1l-6 33Z"/><path fill="#455A64" d="m175 312 6-33a2 2 0 0 1 1-1l49-28-1-1-49 28a2 2 0 0 0-1 2l-5 33Z"/><path fill="#263238" d="m181 278-1 1-5 33 6-33v-1Z"/><path fill="#0082F4" d="M202 284c0-2 2-5 4-6 3-1 4-1 4 1l-5 7c-2 1-4 0-3-2Z"/><path fill="#000" d="M142 314c-3 2-3 5 0 7a14 14 0 0 0 13 0c3-2 3-5 0-7a14 14 0 0 0-13 0Z" opacity=".1"/><path fill="#455A64" d="m154 317-6-2 6 2Z"/><path fill="#0082F4" d="M154 303h-11c-3 1-3 3 0 4h11c3-1 3-3 0-4Z"/><path fill="#000" d="M154 303h-11c-3 1-3 3 0 4h11c3-1 3-3 0-4Z" opacity=".3"/><path fill="#FAFAFA" d="M156 299h-16l2 19 2 2c3 1 6 1 9-1 2 0 2-1 2-2l1-18Z"/><path fill="#EBEBEB" d="m140 299 1 4 1 1c4 1 8 1 12-1h2v-4h-16Z"/><path fill="#0082F4" d="M157 299v-2h-2l-1-1a19 19 0 0 0-13 1h-2v3c0 1 1 2 3 2 4 2 8 1 12 0l3-3Z"/><path fill="#000" d="M157 299v-2h-2l-1-1a19 19 0 0 0-13 1h-2v3c0 1 1 2 3 2 4 2 8 1 12 0l3-3Z" opacity=".2"/><path fill="#0082F4" d="M154 294h-12c-4 2-4 4 0 5 4 2 8 2 12 0 4-1 4-4 0-5Z"/><path fill="#0082F4" d="M155 296v-2h-14v2c-1 1 0 2 2 3 3 1 7 1 10-1 2 0 3-1 2-2Z"/><path fill="#000" d="M155 296v-2h-14v2c-1 1 0 2 2 3 3 1 7 1 10-1 2 0 3-1 2-2Z" opacity=".2"/><path fill="#0082F4" d="M153 292h-10c-2 1-2 3 0 4h10c2-1 2-3 0-4Z"/><path fill="#0082F4" d="M154 294h-1l-1 1-4 1-4-1-2-1 1-1 5-1 4 1 2 1Z"/><path fill="#000" d="M154 294h-1l-1 1-4 1-4-1-2-1 1-1 5-1 4 1 2 1Z" opacity=".5"/><path fill="#0082F4" d="m153 294-1 1-4 1-4-1-2-1h1l5-1 4 1h1Z"/><path fill="#000" d="m153 294-1 1-4 1-4-1-2-1h1l5-1 4 1h1Z" opacity=".2"/><path fill="#000" d="M151 294h1l-1 1a1 1 0 0 1-1 0l1-1Z" opacity=".5"/><path fill="#0082F4" d="m141 312 2 2c4 1 7 1 11-1l2-2v-6l-2 2h-11l-3-2 1 7Z"/><path fill="#37474F" d="m146 312-1-1-1-2-1 1a3 3 0 0 0 4 3l-1-1ZM144 309l1 1 1 1a3 3 0 0 0 1 1 2 2 0 0 0 0-3 2 2 0 0 0-3 0Z"/><path fill="#0082F4" d="M310 51c6-3 14-3 24 3 18 10 33 36 33 58 0 10-4 18-10 21l-5 3c-6 4-14 3-24-2a74 74 0 0 1-33-58c0-10 4-18 10-21"/><path fill="#fff" d="M367 112c0 10-4 18-10 21l-5 3c-6 4-14 3-24-2l39-22Z" opacity=".4"/><path fill="#fff" d="M362 89c3 7 5 15 5 23l-39 22c-6-4-12-9-17-16l51-29Z" opacity=".5"/><path fill="#fff" d="M311 118a73 73 0 0 1-16-42c0-10 4-18 10-21l5-4c6-3 14-3 24 3 12 7 22 20 28 35l-51 29Z" opacity=".6"/><path fill="#0082F4" d="M328 57c19 11 34 36 34 58 0 21-15 30-34 19a74 74 0 0 1-33-58c0-21 15-30 33-19Z"/><path fill="#fff" d="M328 57c19 11 34 36 34 58 0 21-15 30-34 19a74 74 0 0 1-33-58c0-21 15-30 33-19Z" opacity=".8"/><path fill="#FAFAFA" d="M328 67c14 8 25 27 25 43s-11 22-25 14c-13-8-25-27-25-43s12-22 25-14Z"/><path fill="#0082F4" d="M328 75c10 6 18 19 18 31 0 11-8 15-18 10-9-6-17-19-17-31 0-11 8-15 17-10Z"/><path fill="#fff" d="M328 75c10 6 18 19 18 31 0 11-8 15-18 10-9-6-17-19-17-31 0-11 8-15 17-10Z" opacity=".8"/><path fill="#FAFAFA" d="M328 84c6 3 10 11 10 17s-4 9-10 6c-5-4-9-11-9-17s4-9 9-6Z"/><path fill="#455A64" d="M328 91a9 9 0 0 1 4 7c0 2-1 3-4 2a9 9 0 0 1-4-7c0-2 2-4 4-2Z"/><path fill="#0082F4" d="M269 130s1 4-2 5c-2 2-6-1-4-2l6-3Z"/><path fill="#0082F4" d="M269 130s-7-1-10 1c-3 1 2 3 4 2l6-3Z"/><path fill="#fff" d="M269 130s-7-1-10 1c-3 1 2 3 4 2l6-3Z" opacity=".5"/><path fill="#37474F" d="m322 100-63 36-1-1 63-36 1 1Z"/><path fill="#263238" d="M260 135a1 1 0 0 1-1 2 1 1 0 0 1-1-1 1 1 0 0 1 1-2 1 1 0 0 1 1 1Z"/><path fill="#0082F4" d="M320 100c-1 2 3 3 3 3l5-8-8 5Z"/><path fill="#0082F4" d="M320 100c-1 2 3 3 3 3l5-8-8 5Z"/><path fill="#0082F4" d="M314 98s4 3 6 2l8-5-14 3Z"/><path fill="#fff" d="M314 98s4 3 6 2l8-5-14 3Z" opacity=".5"/><path fill="#37474F" d="m457 386 2 9 3 15c2 7 2 9-2 15-3 7-9 6-13-1-2-6-2-8-2-14l-1-13v-10l13-1Z"/><path fill="#9E6767" d="m459 402-2-16-1-39-22-1 10 42a408 408 0 0 0 4 28h1c3-2 7-2 10-1a2 2 0 0 0 2-1v-1l-2-11ZM389 344l-1 38a54 54 0 0 1-8 22l-4 6c1 1 13 2 18 0 4-2 5-6 6-14a1772 1772 0 0 0 3-21l3-21-17-10Z"/><path fill="#263238" d="m408 388-2 7-1 10v5h-1v-9l-2-4s0-8 6-9Z"/><path fill="#37474F" d="m403 377 3 6 2 4a4 4 0 0 1-2 3l-2 4-5 10c-1 4-1 7-4 8-2 2-11 4-16 4-6 1-8-2-6-5l7-7 6 1c4 1 5 3 9 1 3-2 4-8 4-17-1-14 4-12 4-12Z"/><path fill="#455A64" d="m443 219 6 11c3 6 5 10 5 28l1 57c0 3 2 5 2 21 1 12-1 41-1 41s-7 4-14 1a1151 1151 0 0 1-23-95l-6 31-2 18-7 37a18 18 0 0 1-16-1l-1-56c0-26 0-69 6-92 11 6 42 5 50-1Z"/><path fill="#37474F" d="m434 276 1 12 1 13 3 25 4 25 4 25-4-25a861 861 0 0 1-8-50l-1-25ZM395 273a1019 1019 0 0 0-2 46v45a754 754 0 0 1 2-91ZM419 283l-4-28c-6-1-13-4-17-9 0 0 2 8 13 12l5 24-3 32 6-31Z"/><path fill="#9E6767" d="M403 161c-7 3-9 4-20 13l-15 13-21-12c-3-2-3-5-5-8l-4-7c-1-2-3 0-3 2l1 5-8-9c-3-4-5-3-5-2l1 2a2 2 0 0 0-2 3v1a3 3 0 0 0-1 3l1 2 1 5 4 5 4 4 10 5 8 6 15 12a10 10 0 0 0 11 0l9-8 16-13 3-22Z"/><path fill="#0082F4" d="M404 161c-7 1-11 3-16 8l-20 17-5-1s2 3 0 8c-2 6-6 6-6 6l9 6c4 3 6 2 9 0l26-22 3-22Z"/><path fill="#000" d="M404 161c-7 1-11 3-16 8l-20 17-5-1s2 3 0 8c-2 6-6 6-6 6l9 6c4 3 6 2 9 0l26-22 3-22Z" opacity=".1"/><path fill="#874C4C" d="M336 169a9 9 0 0 0 4 10s-4-2-5-5c-1-4 1-5 1-5Z"/><path fill="#000" d="M368 186s4 2 9 8c0 0-1-6-8-9l-1 1Z" opacity=".1"/><path fill="#0082F4" d="M445 193c-9-6-7-21-5-30l-17-4-19 2c-6 4-10 10-14 16s-6 16 3 24l1 7c0 7-3 12-1 15 2 2 10 6 26 6 15 0 23-5 25-7 2-3 1-9 0-12-1-4-1-9 1-17Z"/><path fill="#fff" d="M445 193c-9-6-7-21-5-30l-17-4-19 2c-6 4-10 10-14 16s-6 16 3 24l1 7c0 7-3 12-1 15 2 2 10 6 26 6 15 0 23-5 25-7 2-3 1-9 0-12-1-4-1-9 1-17Z" opacity=".8"/><path fill="#0082F4" d="M429 158v3s-5 15-5 30c-1 15 2 60 2 60s10-1 17-6c6-4 9-15 9-15l-7-18c-1-6 2-28 2-28l-9-21s-7-2-9-5ZM412 158v2c-6 6-11 14-14 22-2 9-4 65-4 65-3 0-7-2-9-5 2-15 4-34 3-42-1-7-4-15 2-24 7-10 14-15 14-15l8-3Z"/><path fill="#9E6767" d="M438 163c9 3 13 3 16 10l12 36c1 4 1 7-1 11l-4 10-5 12-2 5v6l-1 6-2 4-2 2-2 3-5 3-3 3c-2 2-2-1-2-2l1-4 3-10v-3a1 1 0 0 0-1 0l-2 3a15 15 0 0 1-3 3l-3-1v-1l2-3 1-3c1-4 2-7 5-9 4-6 9-31 9-31l-7-20s-6-7-6-17c-1-10 2-13 2-13Z"/><path fill="#0082F4" d="M438 163c5 1 11 2 14 6 2 3 4 5 7 16l8 24c1 3 0 6-1 8l-4 10s-1-4-6-5h-9l2-8-8-21c-4-6-6-12-6-19 0-9 3-11 3-11Z"/><path fill="#000" d="M438 163c5 1 11 2 14 6 2 3 4 5 7 16l8 24c1 3 0 6-1 8l-4 10s-1-4-6-5h-9l2-8-8-21c-4-6-6-12-6-19 0-9 3-11 3-11Z" opacity=".1"/><path fill="#263238" d="m412 147-3-5-5-3-5-3c-5-3-4-10-3-15 3-7 11-11 18-12 12 0 17 3 18 9 3 0 4 2 6 3 3 4 3 11 2 15l-7 10-4 8s-15-4-17-7Z"/><path fill="#9E6767" d="M432 146a5 5 0 0 0 5-2c3-3 3-7 1-9-1-1-3-2-5-1l-3 4c-1 1-4 1-4-4-1-6-1-11-4-13-4-3-8-1-11 1-2-2-4-4-6-2-3 1-6 5-6 15s1 16 5 19l8 1v5a19 19 0 0 0-1 19c16-9 18-18 18-18l1-16a3 3 0 0 0 2 1Z"/><path fill="#263238" d="M418 133a2 2 0 1 1-3 1 2 2 0 0 1 3-1ZM405 134a2 2 0 1 1-3 0 2 2 0 0 1 3 0Z"/><path fill="#0082F4" d="M411 122s2-4 7-5a8 8 0 0 1 10 6l1 12a3 3 0 0 0 4 2c-3 3-6 3-8 1s-2-6-3-11c0-5-5-8-11-5Z"/><path fill="#fff" d="M411 122s2-4 7-5a8 8 0 0 1 10 6l1 12a3 3 0 0 0 4 2c-3 3-6 3-8 1s-2-6-3-11c0-5-5-8-11-5Z" opacity=".3"/><path fill="#263238" d="m401 130 4-1a2 2 0 0 0-3-1 2 2 0 0 0-1 2ZM415 129l4 1a2 2 0 0 0 0-2l-1-1a2 2 0 0 0-3 2Z"/><path fill="#874C4C" d="m417 143-6 2a3 3 0 0 0 4 2 3 3 0 0 0 2-4Z"/><path fill="#F28F8F" d="M414 147a3 3 0 0 1 3-3 3 3 0 0 1-2 3h-1Z"/><path fill="#874C4C" d="m411 132-1 10-5-2c1-3 3-6 6-8ZM412 155l11-2 4-6s-1 5-4 7c-4 3-11 4-11 4v-3Z"/><path fill="#E0E0E0" d="m91 146-6-3-1-2 3-2 4 7ZM56 147a6 6 0 0 0 2 5h1a6 6 0 0 0 5 1c-2 0-3-1-3-2v-46l1-3-6-3v48Z"/><path fill="#FAFAFA" d="M120 71c-1-2-2-2-3-1l-53 30-2 2-1 3v46c0 1 1 2 3 2v-1l23-13 4 7a1 1 0 0 0 1 0l4-12 21-12c3-2 3-3 3-5V71Z"/><path fill="#E0E0E0" d="m118 70 1 1v46c0 2 0 3-2 4l-21 12h-1v1l-4 11-3-6-1-1v1l-23 13h-1l-1-1v-46l1-2 2-2 52-30 1-1Zm0-1-1 1-53 30-2 2-1 3v46l2 2h1v-1l23-13 4 7a1 1 0 0 0 1 0l4-12 21-12c3-2 3-3 3-5V71a1 1 0 0 0-2-2Z"/><path fill="#F5F5F5" d="M120 71c-1-2-2-2-3-1l-53 30-2 2-6-3 2-2 53-30a6 6 0 0 1 6 0 6 6 0 0 1 3 4Z"/><path fill="#0082F4" d="M91 98c-6 4-11 12-11 19s5 9 11 6 10-12 10-18c0-7-5-10-10-7Zm5 10-8 10c-1 1-1 1-1-1v-9a2 2 0 0 1 2-2l6 1c2 0 2 0 1 1Zm17-29a2 2 0 0 0-2 0l-41 24a6 6 0 0 0-3 5v32a2 2 0 0 0 1 2h1l1-1 42-23a6 6 0 0 0 2-5V81a2 2 0 0 0-1-2Zm0 34a5 5 0 0 1-2 4l-41 24a1 1 0 0 1-2 0 1 1 0 0 1 0-1v-32a5 5 0 0 1 2-4l42-24h1a1 1 0 0 1 0 1v32Z"/><path fill="#fff" d="M91 98c-6 4-11 12-11 19s5 9 11 6 10-12 10-18c0-7-5-10-10-7Zm5 10-8 10c-1 1-1 1-1-1v-9a2 2 0 0 1 2-2l6 1c2 0 2 0 1 1Zm17-29a2 2 0 0 0-2 0l-41 24a6 6 0 0 0-3 5v32a2 2 0 0 0 1 2h1l1-1 42-23a6 6 0 0 0 2-5V81a2 2 0 0 0-1-2Zm0 34a5 5 0 0 1-2 4l-41 24a1 1 0 0 1-2 0 1 1 0 0 1 0-1v-32a5 5 0 0 1 2-4l42-24h1a1 1 0 0 1 0 1v32Z" opacity=".3"/><path fill="#E0E0E0" d="m416 93 6-3 1-2-3-2-4 7ZM451 94a6 6 0 0 1-2 5h-1a6 6 0 0 1-5 1l2-2V49l6-3v48Z"/><path fill="#FAFAFA" d="M387 18c1-1 2-2 3-1l53 30 2 2v49c0 1 0 2-2 2v-1l-23-13-4 7a1 1 0 0 1-1 0l-4-12-21-12c-3-2-3-3-3-5V18Z"/><path fill="#E0E0E0" d="m389 17 1 1 52 30 2 2 1 2v46l-1 1h-1l-23-13v-1l-1 1-3 6-4-11-1-1-21-12c-2-1-2-2-2-4V18l1-1Zm0 0a1 1 0 0 0-2 1v46c0 2 0 3 3 5l21 12 4 12a1 1 0 0 0 1 0l4-7 23 13v1h1l1-2V49l-2-2-53-30h-1Z"/><path fill="#F5F5F5" d="M387 18c1-1 2-2 3-1l53 30 2 2 6-3-2-2-53-31a6 6 0 0 0-6 0v1a6 6 0 0 0-3 4Z"/><path fill="#0082F4" d="M421 54c1 1 3 0 3-1a6 6 0 0 0-3-5c-2-1-3 0-3 1a6 6 0 0 0 3 5Zm16-4-41-24a2 2 0 0 0-3 2v32a6 6 0 0 0 2 5l42 24h2a2 2 0 0 0 1-2V55a6 6 0 0 0-3-5Zm2 37a1 1 0 0 1 0 1 1 1 0 0 1-2 0l-41-24a5 5 0 0 1-2-4V28a1 1 0 0 1 0-1h1l42 24a5 5 0 0 1 2 4v32Zm-18-23 1 5-17-29-9 10v9a2 2 0 0 0 1 2l39 22h1v-7l-9-18-7 6Z"/><path fill="#fff" d="M421 54c1 1 3 0 3-1a6 6 0 0 0-3-5c-2-1-3 0-3 1a6 6 0 0 0 3 5Zm16-4-41-24a2 2 0 0 0-3 2v32a6 6 0 0 0 2 5l42 24h2a2 2 0 0 0 1-2V55a6 6 0 0 0-3-5Zm2 37a1 1 0 0 1 0 1 1 1 0 0 1-2 0l-41-24a5 5 0 0 1-2-4V28a1 1 0 0 1 0-1h1l42 24a5 5 0 0 1 2 4v32Zm-18-23 1 5-17-29-9 10v9a2 2 0 0 0 1 2l39 22h1v-7l-9-18-7 6Z" opacity=".3"/><path fill="#E0E0E0" d="m204 102-5-3v-1l-1-2 2-1 4 7ZM169 103a6 6 0 0 0 3 5 6 6 0 0 0 5 0c-1 1-2 0-2-2V61l1-3-6-4-1 3v46Z"/><path fill="#FAFAFA" d="m233 26-3-1-52 31-2 2-1 3v45c0 2 1 3 2 2h1l22-13 4 7a1 1 0 0 0 1 0l4-12 22-13c2-1 2-3 2-4V26Z"/><path fill="#E0E0E0" d="M232 26v47l-2 4-21 12-4 12-4-7h-1l-23 13h-1V58l2-1 53-31h1Zm0-1h-2l-52 31-2 2-1 3v45l1 2h2l22-13 4 7a1 1 0 0 0 1 0l4-12 22-13c2-1 2-3 2-4V26a1 1 0 0 0-1-1Z"/><path fill="#F5F5F5" d="m233 26-3-1-52 31-2 2-6-4 2-2 52-30a6 6 0 0 1 6 0 6 6 0 0 1 3 4Z"/><path fill="#E0E0E0" d="M180 69v-1h1v1h-1ZM181 68l1-1-1 1Zm2-1 1-1-1 1Zm2-1 1-1-1 1Zm2-1 1-1-1 1Zm1-1 1-1h1-1v1h-1Zm2-1v-1h1l-1 1Zm2-1v-1h1l-1 1Zm2-1v-1h1l-1 1Zm2-1h-1v-1h2l-1 1Zm1-1v-1h1l-1 1Zm2-2h1-1Zm2-1h1-1Zm2-1h1-1Zm1-1 1-1v1h-1Zm2-1 1-1v1h-1Zm2-1 1-1v1h-1Zm2-1 1-1v1h-1Zm2-1h-1l1-1h1v1h-1Zm1-1 1-1v1h-1Zm2-1 1-1-1 1Zm2-1 1-1-1 1Zm2-1h-1 1v-1h1l-1 1Zm1-1 1-1-1 1Zm2-1v-1h1l-1 1Zm2-1v-1h1l-1 1Zm2-1v-1h1l-1 1ZM227 41v-1h1v1h-1ZM180 76v-1h1l-1 1ZM181 75l1-1-1 1Zm2-1v-1h1l-1 1Zm2-1v-1h1l-1 1Zm2-1v-1h1l-1 1Zm1-1v-1h1v1h-1Zm2-1v-1h1l-1 1Zm2-1v-1h1l-1 1Zm2-1v-1h1-1v1Zm2-2h-1 2-1Zm1-1h1-1Zm2-1 1-1v1h-1Zm2-1h1-1Zm2-1v-1h1v1h-1Zm1-1 1-1v1h-1Zm2-1 1-1v1h-1Zm2-1 1-1-1 1Zm2-1 1-1-1 1Zm1-1 1-1h1-1v1h-1Zm2-1 1-1-1 1Zm2-1v-1h1l-1 1Zm2-1v-1h1l-1 1Zm2-1h-1v-1h2l-1 1Zm1-1v-1h1l-1 1Zm2-1v-1h1l-1 1Zm2-1v-1h1l-1 1Zm2-1v-1h-1 2-1v1ZM227 47h1-1ZM180 82h1-1ZM181 82v-1h1l-1 1Zm2-1v-1h1l-1 1Zm2-1v-1h1l-1 1Zm2-1v-1h1l-1 1Zm1-2h1-1Zm2-1h1-1Zm2-1 1-1v1h-1Zm2-1 1-1v1h-1Zm2-1h-1l1-1h1v1h-1Zm1-1 1-1v1h-1Zm2-1 1-1v1h-1Zm2-1 1-1v1h-1Zm2-1h-1 1v-1h1l-1 1Zm1-1 1-1-1 1Zm2-1 1-1-1 1Zm2-1 1-1-1 1Zm2-1 1-1-1 1Zm1-1v-1h2-1v1h-1Zm2-1v-1h1l-1 1Zm2-1v-1h1l-1 1Zm2-1v-1h1l-1 1Zm2-1-1-1h2l-1 1Zm1-2h1-1Zm2-1h1-1Zm2-1h1-1Zm2-1h-1 2-1ZM227 54h1-1ZM180 89h1-1ZM181 88h1-1Zm2-1h1-1Zm2-1 1-1v1h-1Zm2-1v-1h1v1h-1Zm1-1 1-1v1h-1Zm2-1 1-1v1h-1Zm2-1 1-1v1h-1Zm2-1 1-1v1h-1Zm2-1h-1l1-1h1-1v1Zm1-1 1-1-1 1Zm2-1 1-1-1 1Zm2-1 1-1-1 1Zm2-1h-1 1v-1h1l-1 1Zm1-1v-1h1l-1 1Zm2-1v-1h1l-1 1Zm2-1v-1h1l-1 1Zm2-1v-1h1l-1 1Zm1-1v-1h2-1v1h-1Zm2-1v-1h1l-1 1v-1 1Zm2-2h1-1Zm2-1h1-1Zm2-1h-1l1-1 1 1h-1Zm1-1 1-1v1h-1Zm2-1 1-1v1h-1Zm2-1 1-1v1h-1Zm2-1v-1h1v1h-1ZM227 61l1-1v1h-1Z"/><path fill="#0082F4" d="m180 89 5-7h5l4-6 5-1 5-10 5 5 5-13 5 3 4-17 5 4v20l-48 29v-7Z" opacity=".2"/><path fill="#FAFAFA" d="M184 93v-1h1v1h-1Zm0-1v-1h1v1h-1Zm0-1v-1h1v1h-1Zm0-2v-1h1v1h-1Zm0-1v-1h1v1h-1Zm0-1v-1h1l-1 1Zm0-2v-1h1v1h-1Zm0-1v-1h1v1h-1ZM194 88v-1 1Zm0-2Zm0-1v-1 1Zm0-1v-1 1Zm0-1v-1 1Zm0-1v-1 1Zm0-1v-1 1Zm0-1v-1 1Zm0-2Zm0-1v-1 1Zm0-1ZM204 82v-1 1Zm0-2v-1 1Zm0-2v-1 1Zm0-2v-1 1Zm0-2v-1 1Zm0-2v-1 1Zm0-1v-2 2Zm0-2v-2 2Zm0-2v-1 1ZM214 76h-1v-2h1v2Zm0-3v-2 2Zm0-3v-2 2Zm0-3v-2 2Zm0-3v-2 2Zm0-4v-1 1Zm0-3v-1 1ZM223 70v-2h1v2h-1Zm0-3v-2h1v1l-1 1Zm0-4v-2h1v2h-1Zm0-4v-2h1v2h-1Zm0-3v-2h1v2h-1Zm0-4v-2h1v2h-1Zm0-3v-2h1v2h-1Zm0-4v-2h1v2h-1Z"/><path fill="#0082F4" d="M180 90v-1l4-7 6-1 4-6 5-1 5-9 5 4 5-13 5 3 4-16h1l-5 17-5-3-5 13h-1l-4-4-4 9h-1l-5 1-4 6-5 1-4 6-1 1Z"/><path fill="#0082F4" d="M225 48h-1l-1-5-3 4v-1l3-4h1l1 5v1ZM180 96l48-29v1l-48 28Z"/></svg>