<svg xmlns="http://www.w3.org/2000/svg" width="150" height="150" fill="none"><path stroke="#0082F4" stroke-width="4" d="M148 75A73 73 0 1 1 2 75a73 73 0 0 1 146 0Z"/><path fill="#0082F4" d="M89 75a42 42 0 0 0 17-33 1 1 0 0 0-1-1 42 42 0 0 0-33 16 4 4 0 0 1-5 0 6 6 0 0 0-9 0l-8 8a1 1 0 0 0 0 1l5 5a8 8 0 0 0 9 1 1 1 0 0 0 0 1l3 2-6 2a1 1 0 0 0 0 1l3 3a7 7 0 0 0-11 3l-1 3a1 1 0 0 0 1 1h1l-2 6a1 1 0 0 0 1 0h3a1 1 0 0 0 0-1h-2c0-1 0-3 2-5a1 1 0 0 0 0-2h-2a6 6 0 0 1 6-5 4 4 0 0 0-2 3v4a1 1 0 0 0 1 1l4-1a4 4 0 0 0 2-1 6 6 0 0 1 0 2l-1 2a1 1 0 1 0 1 1 7 7 0 0 0 1-9l3 3a1 1 0 0 0 1 0l2-6 2 2a1 1 0 0 0 1 1v-1a8 8 0 0 0 1 10l5 4v1l1-1 8-8a6 6 0 0 0 0-8 4 4 0 0 1-1-5Zm15-33v8l-7-7 7-1ZM56 69l-4-4 8-7a4 4 0 0 1 5 0 6 6 0 0 0 5 2l-5 10a6 6 0 0 1-9-1Zm8 16a2 2 0 0 1-2 2h-2v-3a2 2 0 0 1 3-1 2 2 0 0 1 1 2Zm5-1-6-6 5-1 2 2-1 5Zm6-3-9-9v-1a41 41 0 0 1 29-27c2 3 5 6 8 7-3 14-14 26-28 30Zm14 6-8 8-4-4a6 6 0 0 1 0-9l10-5a6 6 0 0 0 2 4 4 4 0 0 1 0 6Z"/><path fill="#0082F4" d="M61 93h-3a1 1 0 1 0 0 1h3a1 1 0 1 0 0-1ZM94 76l1-1a42 42 0 0 0 2-1 1 1 0 0 0-2-1 42 42 0 0 1-2 2 1 1 0 0 0 1 1ZM108 54a1 1 0 0 0-1 1 41 41 0 0 1-9 15 1 1 0 0 0 1 1 43 43 0 0 0 9-16 1 1 0 0 0 0-1ZM43 74l1-1a1 1 0 0 0-1-1l-1 1a1 1 0 0 0 1 1ZM46 72l3-3a1 1 0 1 0-1-1l-3 2a1 1 0 1 0 1 2ZM44 77a1 1 0 0 0 1 0l3-3a1 1 0 0 0-1-1l-3 3a1 1 0 0 0 0 1ZM49 72a1 1 0 0 0 1 0l1-1a1 1 0 1 0-1-1l-2 1a1 1 0 0 0 1 1ZM46 78l-4 4a1 1 0 0 0 1 1l4-4a1 1 0 1 0-1-1Z"/><path fill="#0082F4" d="M53 72a1 1 0 0 0-1 0l-4 4a1 1 0 1 0 1 1l4-4a1 1 0 0 0 0-1ZM69 98l-1 1a1 1 0 0 0 2 1 1 1 0 0 0-1-2Z"/><path fill="#0082F4" d="m74 94-3 3a1 1 0 1 0 1 1l3-3a1 1 0 0 0-1-1ZM70 103a1 1 0 0 0 1 0l3-3a1 1 0 1 0-1-1l-3 3a1 1 0 0 0 0 1ZM75 98a1 1 0 0 0 1 0l1-1a1 1 0 0 0-1-1l-1 1a1 1 0 0 0 0 1ZM72 104l-4 4a1 1 0 1 0 1 1l4-4a1 1 0 1 0-1-1Z"/><path fill="#0082F4" d="m78 98-4 4a1 1 0 1 0 1 2l4-5a1 1 0 1 0-1-1ZM101 88a5 5 0 0 1-3-3 1 1 0 0 0-1 0 5 5 0 0 1-3 3 1 1 0 0 0 0 2 5 5 0 0 1 3 3 1 1 0 0 0 1 0 5 5 0 0 1 3-3 1 1 0 0 0 0-2Zm-3 3-2-2 2-2 1 2-1 2ZM43 57a5 5 0 0 1 3 3 1 1 0 0 0 1 0 5 5 0 0 1 3-3 1 1 0 0 0 0-2 5 5 0 0 1-3-3 1 1 0 0 0-1 0 5 5 0 0 1-3 3 1 1 0 0 0 0 2Zm4-3 1 2-1 2-2-2 2-2ZM57 49a2 2 0 1 0 0-3 2 2 0 0 0 0 3ZM95 102a2 2 0 1 0 0-3 2 2 0 0 0 0 3ZM86 55a6 6 0 1 0 0 12 6 6 0 0 0 0-12Zm3 9a4 4 0 1 1-6-6 4 4 0 0 1 6 6Z"/></svg>